# xmcd
#
# Track frame offsets:
#	150
#	15553
#	27453
#	46689
#	64030
#	78233
#	91684
#	110006
#	128088
#	143673
#	154147
#	165586
#	178455
#	198887
#	221151
#
# Disc length: 3117 seconds
#
# Revision: 1
# Processed by: cddbd v1.4PL0 Copyright (c) Steve Scherf et al.
# Submitted via: audiograbber 1.80
#
DISCID=c40c2b0f
DTITLE=Various Artist - Greatest Hits Of Soul And R&B Disk 1
DYEAR=1900
DGENRE=
TTITLE0=Joe Tex - Buying A Book
TTITLE1=Aaron Neville - Tell It Like It Is
TTITLE2=Denise Lasalle - It's Lying Time Again
TTITLE3=The Temptations - Just My Imagination
TTITLE4=ZZ Hill - Chokin' Kind
TTITLE5=Persy Sledge - My Special Prayer
TTITLE6=Charles Brimmer - That's How Strong My Love Is
TTITLE7=The Independents - The First Time We Met
TTITLE8=Al Wilson - Show And Tell
TTITLE9=Chuck Jackson - I Don't Want To Cry
TTITLE10=Brenton Wood - The Oogum Boogum Song
TTITLE11=Dobie Gray - The 'In' Crowed
TTITLE12=Billy Jones - We Wnat Peace
TTITLE13=Ike and Tina Turner - Proud Mary
TTITLE14=The Isley Brothers - Who's That Lady
EXTD=
EXTT0=
EXTT1=
EXTT2=
EXTT3=
EXTT4=
EXTT5=
EXTT6=
EXTT7=
EXTT8=
EXTT9=
EXTT10=
EXTT11=
EXTT12=
EXTT13=
EXTT14=
PLAYORDER=
